#!OML:ASF X:\für Bonn\!DataBase\2005_08_10_Bjorn_Final\c3d\bjorn.ASF
:FULLY-SPECIFIED
:DEGREES
137
root -18.5886 19.4752 0.0277045 1835.71 -84.2751 -393.95
lowerback -4.12839 7.80498 -4.57435
upperback 7.33147 11.2952 -9.86203
thorax 11.5391 5.41695 -6.67601
lowerneck -5.65617 -12.2212 6.4302
upperneck 2.73349 -17.3749 8.39989
head 2.05222 -8.48295 0.996671
rclavicle -7.15625e-014 2.54444e-014
rhumerus 41.7261 -6.59016 -34.3055
rradius 37.1365
rwrist -24.1581
rhand 9.02827 0.698859
rfingers 7.12502
rthumb 34.2041 -26.0394
lclavicle -7.15625e-014 2.54444e-014
lhumerus -24.1699 2.47713 73.9448
lradius 21.248
lwrist -22.4567
lhand -20.013 -5.95972
lfingers 7.12502
lthumb 6.32722 23.9258
rfemur -7.80949 -5.74272 20.2448
rtibia 33.6506
rfoot -14.6783 15.3439
rtoes -11.517
lfemur -16.0204 6.44137 -16.1619
ltibia 27.7385
lfoot -4.41928 -17.3084
ltoes 3.61659
138
root -18.5953 19.478 0.0217773 1834.59 -84.1458 -392.824
lowerback -4.13839 7.78149 -4.63274
upperback 7.3424 11.27 -9.84602
thorax 11.5387 5.39852 -6.62909
lowerneck -5.70072 -12.263 6.43831
upperneck 2.82627 -17.4494 8.44693
head 2.09621 -8.51256 1.00012
rclavicle 3.49861e-014 5.725e-014
rhumerus 41.4793 -6.38327 -33.8478
rradius 37.3881
rwrist -24.6128
rhand 8.7561 0.760516
rfingers 7.12502
rthumb 33.9456 -26.0353
lclavicle 3.49861e-014 5.725e-014
lhumerus -24.2885 2.77724 73.744
lradius 21.0927
lwrist -22.6581
lhand -19.9418 -5.80238
lfingers 7.12502
lthumb 6.39595 24.081
rfemur -7.76128 -5.66453 20.2267
rtibia 33.7966
rfoot -14.5902 15.2443
rtoes -11.5451
lfemur -15.9765 6.40438 -16.1691
ltibia 27.6706
lfoot -4.36599 -17.4368
ltoes 3.65924
139
root -18.6008 19.4792 0.015538 1833.79 -84.02 -392.047
lowerback -4.12091 7.77089 -4.66168
upperback 7.33475 11.255 -9.83219
thorax 11.5078 5.38869 -6.60219
lowerneck -5.73861 -12.3063 6.46893
upperneck 2.94647 -17.5272 8.46487
head 2.14319 -8.54272 0.991192
rclavicle 1.43125e-014 -3.49861e-014
rhumerus 41.2331 -6.13155 -33.3673
rradius 37.5543
rwrist -25.0209
rhand 8.52164 0.925067
rfingers 7.12502
rthumb 33.7229 -25.9198
lclavicle 1.43125e-014 -3.49861e-014
lhumerus -24.433 3.11942 73.5129
lradius 20.948
lwrist -22.8932
lhand -19.8999 -5.6348
lfingers 7.12502
lthumb 6.43644 24.2474
rfemur -7.6952 -5.57367 20.2334
rtibia 33.9401
rfoot -14.5571 15.1069
rtoes -12.0035
lfemur -15.934 6.45416 -16.1568
ltibia 27.6083
lfoot -4.29074 -17.6111
ltoes 3.81215
140
root -18.6053 19.4812 0.0092847 1832.77 -83.9225 -391.029
lowerback -4.13212 7.75496 -4.72628
upperback 7.35201 11.2409 -9.81511
thorax 11.5154 5.37476 -6.54891
lowerneck -5.80161 -12.3431 6.43676
upperneck 3.04565 -17.595 8.51634
head 2.19687 -8.56798 0.999906
rclavicle 4.45278e-014 -1.20861e-013
rhumerus 41.0808 -5.89779 -32.8487
rradius 37.6209
rwrist -25.4215
rhand 8.40314 1.14483
rfingers 7.12502
rthumb 33.6102 -25.7246
lclavicle 4.45278e-014 -1.20861e-013
lhumerus -24.529 3.41045 73.332
lradius 20.7931
lwrist -23.0734
lhand -19.8645 -5.48216
lfingers 7.12502
lthumb 6.47061 24.399
rfemur -7.64156 -5.50028 20.1857
rtibia 34.0926
rfoot -14.4771 15.0197
rtoes -12.104
lfemur -15.8882 6.4341 -16.182
ltibia 27.5495
lfoot -4.2349 -17.7282
ltoes 3.89133
141
root -18.6091 19.4834 0.00331018 1832.13 -83.8496 -390.406
lowerback -4.14806 7.74594 -4.76511
upperback 7.35158 11.2333 -9.79344
thorax 11.51 5.36647 -6.50282
lowerneck -5.80706 -12.3812 6.36993
upperneck 3.13656 -17.6565 8.58564
head 2.24301 -8.59201 1.0232
rclavicle -1.74931e-014 5.40694e-014
rhumerus 40.9882 -5.57782 -32.2892
rradius 37.5805
rwrist -25.8064
rhand 8.32796 1.40362
rfingers 7.12502
rthumb 33.5388 -25.4813
lclavicle -1.74931e-014 5.40694e-014
lhumerus -24.6694 3.84994 73.1174
lradius 20.6484
lwrist -23.353
lhand -19.8009 -5.35647
lfingers 7.12502
lthumb 6.53203 24.5228
rfemur -7.58377 -5.41101 20.1513
rtibia 34.2483
rfoot -14.3228 14.9757
rtoes -12.1695
lfemur -15.8468 6.4215 -16.1794
ltibia 27.4931
lfoot -4.11737 -17.8252
ltoes 4.30478
142
root -18.6118 19.484 -0.00278931 1831.59 -83.7829 -389.866
lowerback -4.18435 7.73371 -4.80333
upperback 7.35161 11.2239 -9.76536
thorax 11.5157 5.3568 -6.4477
lowerneck -5.79145 -12.4094 6.27819
upperneck 3.19831 -17.699 8.66762
head 2.27926 -8.6087 1.05697
rclavicle 1.43125e-014 -1.90833e-014
rhumerus 40.9587 -5.25023 -31.774
rradius 37.4468
rwrist -26.0089
rhand 8.30475 1.80218
rfingers 7.12502
rthumb 33.5167 -25.0876
lclavicle 1.43125e-014 -1.90833e-014
lhumerus -24.7654 4.32574 72.8932
lradius 20.4455
lwrist -23.7218
lhand -19.7919 -5.26207
lfingers 7.12502
lthumb 6.54069 24.6169
rfemur -7.54593 -5.35492 20.1123
rtibia 34.4139
rfoot -14.1106 14.9639
rtoes -12.062
lfemur -15.8133 6.39135 -16.1754
ltibia 27.433
lfoot -4.05718 -17.8916
ltoes 4.5318
143
root -18.6123 19.4851 -0.00908005 1830.98 -83.7461 -389.261
lowerback -4.17234 7.74793 -4.82493
upperback 7.32722 11.2416 -9.77235
thorax 11.4792 5.36464 -6.44269
lowerneck -5.77294 -12.4498 6.25348
upperneck 3.28466 -17.7631 8.72022
head 2.31428 -8.63502 1.07148
rclavicle -6.36111e-015 1.59028e-014
rhumerus 40.8748 -4.90652 -31.2272
rradius 37.2747
rwrist -26.192
rhand 8.1993 2.25429
rfingers 7.12502
rthumb 33.4165 -24.6571
lclavicle -6.36111e-015 1.59028e-014
lhumerus -24.8662 4.70347 72.6562
lradius 20.2687
lwrist -24.0305
lhand -19.7376 -5.30975
lfingers 7.12502
lthumb 6.59314 24.5676
rfemur -7.50297 -5.30056 20.0397
rtibia 34.5914
rfoot -13.8689 15.0109
rtoes -12.006
lfemur -15.7765 6.3942 -16.1964
ltibia 27.3638
lfoot -3.95464 -17.9628
ltoes 4.75624
144
root -18.6127 19.4886 -0.0160281 1830.7 -83.6862 -388.986
lowerback -4.20322 7.74479 -4.80648
upperback 7.31903 11.2402 -9.76346
thorax 11.4897 5.36538 -6.43908
lowerneck -5.76194 -12.4863 6.187
upperneck 3.35822 -17.8196 8.78912
head 2.35205 -8.65811 1.09667
rclavicle 2.06736e-014 6.36111e-015
rhumerus 40.9115 -4.7022 -30.8633
rradius 37.0737
rwrist -26.5535
rhand 8.05479 2.61991
rfingers 7.12502
rthumb 33.2791 -24.321
lclavicle 2.06736e-014 6.36111e-015
lhumerus -24.9354 5.24457 72.391
lradius 20.0675
lwrist -24.4824
lhand -19.7562 -5.42992
lfingers 7.12502
lthumb 6.57517 24.448
rfemur -7.47824 -5.24822 20.0125
rtibia 34.7861
rfoot -13.6682 15.0218
rtoes -12.0453
lfemur -15.7433 6.42245 -16.1735
ltibia 27.2897
lfoot -3.88879 -18.0505
ltoes 4.78886
